<!-- Generator: Adobe Illustrator 21.0.0, SVG Export Plug-In  -->
<svg version="1.1"
	 xmlns="http://www.w3.org/2000/svg" xmlns:xlink="http://www.w3.org/1999/xlink" xmlns:a="http://ns.adobe.com/AdobeSVGViewerExtensions/3.0/"
	 x="0px" y="0px" width="9.8px" height="9.8px" viewBox="0 0 9.8 9.8" style="enable-background:new 0 0 9.8 9.8;"
	 xml:space="preserve">
<style type="text/css">
	.st0{fill-rule:evenodd;clip-rule:evenodd;fill:#5ABFFF;}
</style>
<defs>
</defs>
<path class="st0" d="M9.6,0.2C9.4,0.1,9.3,0,9.1,0H6.2C5.8,0,5.4,0.3,5.4,0.7c0,0.4,0.3,0.7,0.7,0.7h1.2L5.4,3.4
	C4.9,3,4.2,2.8,3.5,2.8c-1,0-1.8,0.4-2.5,1C0.4,4.5,0,5.4,0,6.3s0.4,1.9,1,2.5c0.6,0.6,1.5,1,2.5,1c1,0,1.8-0.4,2.5-1
	c0.6-0.6,1-1.5,1-2.5c0-0.7-0.2-1.4-0.6-2l1.9-1.9v1.2c0,0.4,0.3,0.7,0.7,0.7c0.4,0,0.7-0.3,0.7-0.7V0.7C9.8,0.7,9.8,0.4,9.6,0.2
	L9.6,0.2z M5,7.8C4.6,8.2,4.1,8.4,3.5,8.4C2.9,8.4,2.4,8.2,2,7.8C1.7,7.4,1.4,6.9,1.4,6.3S1.7,5.2,2,4.9c0.4-0.4,0.9-0.6,1.5-0.6
	c0.6,0,1.1,0.2,1.5,0.6c0.4,0.4,0.6,0.9,0.6,1.5S5.4,7.4,5,7.8L5,7.8z"/>
</svg>
