<!-- Generator: Adobe Illustrator 21.0.0, SVG Export Plug-In  -->
<svg version="1.1"
	 xmlns="http://www.w3.org/2000/svg" xmlns:xlink="http://www.w3.org/1999/xlink" xmlns:a="http://ns.adobe.com/AdobeSVGViewerExtensions/3.0/"
	 x="0px" y="0px" width="13.8px" height="18.6px" viewBox="0 0 13.8 18.6" style="enable-background:new 0 0 13.8 18.6;"
	 xml:space="preserve">
<style type="text/css">
	.st0{fill-rule:evenodd;clip-rule:evenodd;fill:#12C5A0;}
</style>
<defs>
</defs>
<g>
	<path class="st0" d="M6.9,0C3.1,0,0,3.1,0,6.9c0,0.6,0.1,1.4,0.3,2c0.1,0.4,0.3,0.7,0.5,1l5.7,8.4c0.2,0.3,0.7,0.3,0.9,0L13,9.8
		c0.2-0.3,0.4-0.6,0.5-1c0.2-0.6,0.3-1.4,0.3-2C13.8,3.1,10.7,0,6.9,0z M7.9,9.9C5.8,10.6,3.8,9,3.8,6.9c0-1.7,1.4-3.1,3.1-3.1
		c2,0,3.6,1.9,3,4.1C9.6,8.8,8.8,9.5,7.9,9.9z"/>
</g>
</svg>
