<!-- Generator: Adobe Illustrator 21.0.0, SVG Export Plug-In  -->
<svg version="1.1"
	 xmlns="http://www.w3.org/2000/svg" xmlns:xlink="http://www.w3.org/1999/xlink" xmlns:a="http://ns.adobe.com/AdobeSVGViewerExtensions/3.0/"
	 x="0px" y="0px" width="39.5px" height="39.5px" viewBox="0 0 39.5 39.5" style="enable-background:new 0 0 39.5 39.5;"
	 xml:space="preserve">
<style type="text/css">
	.st0{fill:none;stroke:#FFB500;stroke-width:1.5;stroke-linecap:round;stroke-linejoin:round;stroke-miterlimit:10;}
	.st1{fill:#FFB500;}
</style>
<defs>
</defs>
<g>
	<circle id="XMLID_1_" class="st0" cx="19.8" cy="19.8" r="19"/>
	<g>
		<path class="st1" d="M17.9,18.4h0.5c1.2,0,2.2-0.3,2.9-0.9c0.7-0.6,1.1-1.4,1.1-2.5c0-1.8-1.2-2.8-3.6-2.8h-0.8
			c-1,0-1.8,0.8-1.8,1.8v2.5C16.1,17.6,16.9,18.4,17.9,18.4z"/>
		<path class="st1" d="M18.7,20.4h-0.8c-1,0-1.8,0.8-1.8,1.8v3.2c0,1,0.8,1.8,1.8,1.8h1.2c1.3,0,2.3-0.3,3-0.9
			c0.7-0.6,1.1-1.5,1.1-2.5C23.2,21.5,21.7,20.4,18.7,20.4z"/>
	</g>
	<path class="st1" d="M19.7,4.6c-8.4,0-15.1,6.8-15.1,15.1c0,8.4,6.8,15.1,15.1,15.1c8.3,0,15.1-6.8,15.1-15.1
		C34.9,11.4,28.1,4.6,19.7,4.6z M23.8,27.7c-1.2,1-2.6,1.5-4.4,1.5h-3.7c-1,0-1.8-0.8-1.8-1.8V12.1c0-1,0.8-1.8,1.8-1.8h3.6
		c1.6,0,2.9,0.4,3.9,1.2c1,0.8,1.4,1.8,1.4,3.1c0,1.1-0.3,2-0.9,2.8c-0.6,0.8-1.4,1.3-2.4,1.7v0c1.3,0.1,2.3,0.6,3.1,1.4
		c0.8,0.8,1.1,1.9,1.1,3.2C25.6,25.4,25,26.7,23.8,27.7z"/>
</g>
</svg>
