<!-- Generator: Adobe Illustrator 21.0.0, SVG Export Plug-In  -->
<svg version="1.1"
	 xmlns="http://www.w3.org/2000/svg" xmlns:xlink="http://www.w3.org/1999/xlink" xmlns:a="http://ns.adobe.com/AdobeSVGViewerExtensions/3.0/"
	 x="0px" y="0px" width="30.1px" height="25px" viewBox="0 0 30.1 25" style="enable-background:new 0 0 30.1 25;"
	 xml:space="preserve">
<style type="text/css">
	.st0{fill:#ED1717;}
	.st1{fill:#D1D1D1;}
</style>
<defs>
</defs>
<g>
	<path id="XMLID_4_" class="st0" d="M30.1,7.9L30.1,7.9C30,3.5,26.5,0,22.1,0c-3.1,0-5.7,2-7.1,4.2h0C13.7,2,11,0,8,0
		C3.6,0,0.1,3.5,0,7.9h0c0,0,0-0.1,0,0c0,0,0,0,0,0l0,0C0.2,16.6,13.6,25,15.3,25C16.5,25,29.9,16.5,30.1,7.9L30.1,7.9
		C30.1,7.8,30.1,7.9,30.1,7.9C30.1,7.8,30.1,7.9,30.1,7.9z"/>
	<g id="XMLID_1_">
		<g id="XMLID_3_">
			<path class="st1" d="M4.7,6.4c-0.1,0-0.1,0-0.2-0.1C4.3,6.2,4.3,6,4.4,5.8c0.8-1.4,2.3-2.3,3.9-2.3c0.2,0,0.4,0.2,0.4,0.4
				c0,0.2-0.2,0.4-0.4,0.4C6.9,4.3,5.7,5,5,6.2C4.9,6.3,4.8,6.4,4.7,6.4z"/>
		</g>
		<g id="XMLID_2_">
			<path class="st1" d="M3.8,9.2C3.6,9.2,3.5,9,3.5,8.8c0-0.4,0.1-0.9,0.2-1.3c0.1-0.2,0.3-0.3,0.5-0.3c0.2,0.1,0.3,0.3,0.3,0.5
				C4.3,8.1,4.2,8.5,4.2,8.8C4.2,9,4,9.2,3.8,9.2z"/>
		</g>
	</g>
</g>
</svg>
